<?xml version="1.0" standalone="no"?>
<!DOCTYPE svg PUBLIC "-//W3C//DTD SVG 20010904//EN"
 "http://www.w3.org/TR/2001/REC-SVG-20010904/DTD/svg10.dtd">
<svg version="1.0" xmlns="http://www.w3.org/2000/svg"
 width="1890.000000pt" height="1890.000000pt" viewBox="0 0 1890.000000 1890.000000"
 preserveAspectRatio="xMidYMid meet">
<metadata>
Created by potrace 1.14, written by Peter Selinger 2001-2017
</metadata>
<g transform="translate(0.000000,1890.000000) scale(0.100000,-0.100000)"
fill="#000000" stroke="none">
<path d="M1059 13936 c-2 -2 -26 -6 -54 -10 -27 -3 -65 -10 -84 -15 -18 -6
-36 -10 -40 -9 -3 1 -13 -1 -21 -5 -8 -3 -44 -16 -80 -28 -79 -28 -246 -113
-270 -139 -3 -3 -30 -24 -61 -46 -64 -48 -132 -115 -180 -176 -19 -24 -39 -49
-46 -56 -6 -6 -15 -21 -18 -32 -3 -11 -10 -20 -14 -20 -11 0 -106 -191 -130
-263 -11 -31 -18 -57 -16 -57 3 0 0 -12 -6 -27 -36 -92 -46 -374 -19 -508 8
-38 15 -72 15 -75 19 -100 122 -316 198 -416 61 -78 143 -164 209 -215 23 -19
45 -37 46 -41 2 -5 8 -8 12 -8 5 0 28 -13 52 -28 72 -48 177 -98 253 -121 22
-7 47 -15 55 -18 8 -3 20 -7 27 -9 6 -1 35 -7 65 -14 62 -13 252 -28 278 -21
3 1 32 4 65 6 33 2 71 7 85 10 14 3 39 8 55 11 43 8 60 12 63 14 1 2 5 3 10 4
55 15 98 31 150 56 34 16 65 30 68 30 3 0 19 9 35 21 16 11 29 18 29 14 0 -3
6 -1 13 5 6 6 43 34 81 62 123 91 243 223 313 343 44 77 107 222 118 275 2 8
4 15 5 15 1 0 3 7 5 15 45 201 47 403 6 565 -29 116 -61 208 -73 213 -5 2 -8
10 -8 17 0 8 -13 37 -30 65 -16 28 -30 55 -30 60 0 6 -4 10 -10 10 -5 0 -10 5
-10 10 0 17 -100 139 -165 203 -71 70 -174 148 -227 174 -21 10 -38 21 -38 26
0 4 -9 7 -19 7 -11 0 -21 3 -23 8 -7 17 -185 78 -298 102 -51 11 -332 24 -341
16z"/>
<path d="M4359 13936 c-2 -2 -20 -6 -39 -9 -93 -13 -126 -21 -137 -30 -7 -5
-13 -7 -13 -4 0 9 -101 -28 -184 -67 -76 -35 -178 -97 -203 -122 -8 -8 -18
-14 -22 -14 -25 0 -261 -260 -261 -288 0 -4 -8 -17 -18 -28 -14 -15 -72 -124
-77 -144 -1 -3 -7 -18 -14 -35 -15 -38 -22 -59 -23 -65 0 -3 -5 -16 -10 -30
-5 -14 -12 -34 -14 -45 -2 -11 -6 -31 -9 -45 -13 -61 -16 -77 -20 -110 -6 -45
-6 -248 -1 -280 13 -79 22 -125 31 -160 26 -101 124 -322 156 -350 3 -3 19
-25 36 -50 17 -25 46 -62 66 -82 19 -20 32 -39 29 -42 -3 -4 -1 -6 5 -6 6 0
28 -16 49 -36 69 -64 177 -141 249 -177 96 -48 141 -68 159 -71 8 -1 19 -5 22
-9 4 -4 17 -7 29 -7 12 0 25 -3 29 -7 6 -7 12 -8 66 -18 14 -2 36 -7 50 -10
110 -24 294 -21 430 6 72 15 73 15 90 22 8 3 33 11 55 17 22 7 68 25 103 41
35 16 66 29 68 29 12 0 176 114 220 152 81 72 163 162 188 207 5 9 13 19 18
22 19 13 114 199 141 279 25 71 43 143 54 215 8 54 11 315 4 315 -3 0 -7 19
-8 43 -1 43 -40 190 -66 249 -8 18 -22 51 -32 73 -16 37 -79 147 -97 170 -26
34 -81 102 -92 115 -40 48 -158 148 -224 192 -135 88 -316 160 -462 184 -34 6
-316 14 -321 10z"/>
<path d="M7658 13935 c-2 -2 -23 -6 -48 -10 -120 -17 -263 -66 -363 -122 -33
-18 -61 -33 -62 -33 -2 0 -34 -21 -70 -46 -99 -69 -259 -232 -288 -291 -5 -13
-14 -23 -19 -23 -4 0 -8 -6 -8 -14 0 -8 -4 -16 -9 -18 -20 -8 -131 -263 -131
-303 0 -8 -5 -15 -11 -15 -5 0 -8 -3 -5 -8 2 -4 0 -30 -5 -57 -36 -183 -30
-390 15 -537 8 -27 12 -48 9 -48 -3 0 -1 -6 4 -12 6 -7 16 -31 23 -53 16 -52
111 -235 122 -235 4 0 8 -5 8 -11 0 -30 176 -217 270 -287 50 -37 178 -116
190 -117 3 -1 27 -11 53 -23 27 -12 56 -23 65 -24 9 -2 19 -6 22 -10 3 -3 19
-9 35 -12 17 -3 59 -12 94 -20 135 -31 325 -36 437 -12 12 2 37 7 55 10 59 10
72 14 154 44 175 66 287 136 425 267 47 45 53 51 110 125 19 25 37 47 40 50 3
3 14 22 25 43 11 20 23 37 26 37 4 0 13 17 20 38 6 20 15 39 19 42 8 6 54 122
65 165 12 45 12 45 15 48 1 1 3 9 5 17 35 169 38 323 11 500 -8 50 -43 174
-56 195 -4 6 -12 29 -20 53 -7 23 -17 42 -22 42 -5 0 -6 5 -3 10 3 6 1 10 -6
10 -7 0 -10 3 -6 6 7 7 -56 107 -120 192 -71 93 -197 207 -306 275 -99 63
-275 133 -382 152 -22 4 -51 10 -65 12 -29 6 -307 12 -312 8z"/>
<path d="M10898 13921 c-49 -10 -88 -16 -88 -14 0 2 -9 -1 -21 -7 -11 -7 -32
-14 -46 -16 -14 -3 -39 -12 -54 -20 -16 -8 -29 -12 -29 -9 0 2 -20 -7 -45 -21
-25 -13 -45 -21 -45 -17 0 4 -4 4 -8 -2 -4 -5 -27 -21 -52 -34 -25 -14 -47
-27 -50 -30 -3 -4 -18 -15 -35 -25 -36 -23 -46 -32 -91 -73 -20 -18 -40 -33
-45 -33 -5 0 -9 -3 -9 -7 0 -5 -24 -33 -53 -64 -29 -31 -66 -76 -82 -100 -17
-24 -33 -45 -37 -47 -5 -2 -8 -10 -8 -18 0 -8 -5 -14 -12 -14 -6 0 -9 -3 -5
-6 3 -4 -5 -23 -18 -43 -14 -19 -25 -39 -25 -43 0 -4 -11 -31 -24 -60 -27 -60
-58 -152 -62 -185 -1 -12 -4 -25 -7 -30 -6 -10 -19 -103 -23 -168 -1 -27 -3
-52 -4 -55 -1 -3 -1 -9 0 -15 1 -5 4 -44 6 -85 2 -41 6 -86 9 -100 3 -14 8
-41 12 -60 4 -19 8 -37 8 -40 1 -3 5 -18 9 -35 7 -29 20 -70 35 -110 36 -96
138 -267 205 -344 75 -85 233 -217 301 -251 17 -8 32 -18 35 -21 8 -9 172 -77
205 -85 17 -4 35 -10 40 -15 6 -4 13 -7 18 -7 7 0 70 -10 111 -18 125 -23 278
-20 416 7 30 6 60 12 65 13 6 1 16 5 23 9 6 5 12 6 12 3 0 -9 107 32 188 72
241 119 437 316 546 547 16 33 35 72 43 87 7 15 14 30 13 33 0 3 0 6 1 8 6 21
39 154 44 177 24 128 24 298 -2 430 -9 45 -10 50 -13 53 -1 1 -3 9 -5 17 -10
49 -30 112 -51 160 -35 78 -91 185 -109 206 -5 6 -19 24 -30 40 -72 102 -182
205 -300 284 -88 58 -221 126 -265 135 -8 2 -35 10 -60 18 -25 9 -65 19 -90
22 -24 4 -49 9 -53 12 -5 3 -75 7 -156 8 -106 2 -170 -2 -233 -14z"/>
<path d="M14195 13920 c-125 -25 -272 -75 -327 -112 -14 -10 -29 -18 -32 -18
-10 0 -109 -66 -161 -107 -221 -175 -382 -447 -430 -722 -31 -179 -13 -431 40
-557 8 -19 12 -34 10 -34 -14 0 84 -194 136 -272 54 -79 62 -89 136 -164 100
-101 207 -180 313 -231 73 -35 172 -73 190 -73 9 0 20 -3 24 -7 3 -4 12 -8 19
-9 7 -1 37 -7 68 -13 139 -29 326 -30 449 -2 25 5 56 12 70 15 136 27 348 136
470 242 180 156 339 402 377 584 3 14 6 30 7 35 2 10 10 45 22 100 13 59 12
299 -1 370 -21 111 -25 126 -52 205 -37 109 -145 305 -175 318 -5 2 -8 8 -8
14 0 16 -126 148 -179 188 -19 14 -42 33 -52 43 -11 9 -22 17 -25 17 -3 0 -25
13 -48 29 -48 34 -201 107 -243 117 -15 4 -34 11 -40 17 -7 5 -13 7 -13 3 0
-3 -12 -1 -27 5 -16 6 -41 12 -58 14 -16 2 -41 7 -55 10 -59 16 -314 12 -405
-5z"/>
<path d="M17525 13924 c-38 -7 -79 -15 -90 -17 -28 -7 -134 -42 -170 -58 -16
-7 -32 -13 -35 -14 -26 -6 -177 -94 -207 -120 -6 -5 -26 -21 -44 -35 -94 -71
-217 -213 -282 -325 -41 -71 -97 -197 -103 -233 -3 -14 -9 -33 -15 -44 -5 -10
-7 -18 -3 -18 3 0 1 -7 -6 -15 -7 -8 -10 -15 -7 -15 3 0 1 -17 -4 -37 -62
-273 -2 -605 157 -860 53 -85 81 -120 164 -203 90 -90 125 -118 235 -188 32
-20 177 -88 210 -98 214 -68 411 -82 614 -44 25 4 49 6 53 4 5 -3 8 0 8 5 0 6
9 11 20 11 10 0 50 12 87 26 37 14 77 28 88 31 11 4 22 9 25 12 3 3 28 17 55
31 60 30 131 78 205 139 68 57 74 63 135 136 28 33 53 62 56 65 15 13 100 163
127 225 24 56 57 150 68 198 1 4 2 8 4 10 2 2 2 6 16 102 14 107 10 297 -10
385 -3 14 -8 35 -11 48 -3 12 -7 32 -10 43 -12 57 -97 262 -115 279 -3 3 -11
17 -18 31 -8 14 -27 41 -43 60 -16 19 -29 38 -29 43 0 8 -176 185 -211 211
-113 87 -276 168 -404 201 -148 39 -384 52 -510 28z"/>
<path d="M1157 10635 c-1 -2 -36 -5 -77 -9 -93 -8 -120 -11 -145 -19 -11 -3
-31 -8 -45 -11 -78 -15 -285 -103 -324 -138 -11 -10 -24 -18 -29 -18 -31 0
-220 -175 -296 -274 -76 -98 -182 -309 -194 -385 -1 -9 -5 -20 -9 -26 -3 -5
-9 -32 -13 -60 -5 -27 -10 -57 -12 -65 -3 -8 -6 -80 -7 -160 -3 -119 1 -165
19 -255 13 -60 28 -123 35 -140 7 -16 17 -41 22 -55 6 -14 17 -37 25 -52 8
-16 11 -28 7 -28 -4 0 1 -9 11 -20 10 -11 15 -20 11 -20 -4 0 4 -15 18 -33 15
-19 26 -37 26 -41 0 -19 135 -182 194 -235 16 -14 45 -41 65 -59 20 -17 44
-35 54 -38 9 -3 17 -10 17 -15 0 -5 7 -9 15 -9 8 0 15 -3 15 -7 0 -5 10 -13
23 -19 12 -7 47 -25 79 -42 31 -17 89 -42 128 -56 64 -23 89 -31 175 -51 102
-25 355 -25 470 -1 233 49 441 162 608 331 50 51 137 159 137 170 0 3 5 11 10
18 23 27 58 86 65 108 4 13 13 31 20 39 15 19 75 201 81 247 2 19 6 39 9 43
20 33 21 329 0 400 -6 20 -16 70 -19 95 -2 11 -6 29 -10 40 -5 11 -12 34 -18
50 -23 67 -67 164 -90 198 -11 15 -16 27 -11 27 4 0 3 4 -2 8 -6 4 -24 27 -40
52 -17 25 -41 58 -55 75 -35 42 -181 185 -189 185 -3 0 -17 10 -31 23 -14 13
-48 36 -75 52 -28 15 -61 35 -75 44 -14 8 -27 16 -30 16 -3 1 -27 11 -54 23
-43 20 -137 51 -158 53 -4 0 -22 5 -40 10 -18 6 -44 12 -58 14 -53 9 -228 23
-233 20z"/>
<path d="M7725 10632 c-2 -2 -32 -6 -66 -8 -34 -2 -72 -7 -83 -11 -12 -4 -27
-8 -35 -9 -50 -9 -118 -28 -128 -37 -7 -5 -13 -7 -13 -3 0 4 -10 0 -22 -8 -13
-8 -27 -16 -33 -17 -5 -1 -20 -5 -33 -10 -13 -5 -26 -9 -29 -9 -3 0 -25 -13
-50 -30 -24 -16 -48 -30 -52 -30 -8 0 -109 -74 -160 -115 -69 -58 -169 -177
-229 -272 -51 -79 -112 -216 -127 -280 -2 -10 -11 -42 -19 -71 -27 -100 -38
-293 -22 -417 15 -119 67 -297 103 -352 9 -13 12 -23 8 -23 -3 0 3 -13 14 -29
12 -16 21 -32 21 -35 0 -17 111 -164 168 -223 71 -73 182 -170 182 -159 0 4
10 -3 23 -14 31 -29 199 -113 277 -138 150 -48 202 -55 370 -55 184 -1 198 2
420 68 20 6 91 39 155 72 30 15 105 63 115 73 3 3 23 18 45 34 88 65 275 278
275 314 0 6 3 12 8 14 25 10 122 244 136 328 3 14 5 25 6 25 1 0 3 7 4 15 26
128 26 345 1 450 -3 14 -7 34 -9 45 -9 64 -57 190 -119 313 -63 125 -237 313
-373 404 -129 86 -338 170 -454 183 -19 2 -35 4 -35 5 0 7 -234 18 -240 12z"/>
<path d="M14388 10635 c-2 -2 -35 -5 -73 -7 -39 -2 -75 -6 -80 -9 -6 -3 -26
-6 -45 -8 -70 -5 -244 -68 -350 -125 -114 -61 -272 -193 -354 -296 -65 -81
-175 -278 -176 -312 0 -10 -5 -18 -11 -18 -5 0 -7 -5 -4 -10 4 -6 3 -16 -2
-23 -16 -20 -50 -169 -59 -257 -4 -39 -4 -202 0 -235 18 -131 22 -153 61 -275
18 -56 95 -210 133 -265 66 -96 156 -194 242 -264 14 -11 30 -25 37 -31 7 -5
16 -10 22 -10 5 0 11 -4 13 -8 4 -12 114 -76 178 -105 74 -33 166 -63 259 -83
84 -18 313 -27 383 -14 23 5 61 11 83 14 57 9 229 66 237 80 4 6 8 7 8 3 0
-20 228 122 295 184 17 16 39 36 50 46 23 21 108 121 148 175 24 32 129 223
126 230 0 2 2 10 5 18 3 8 12 38 22 65 9 28 18 59 19 70 2 11 4 20 5 20 6 0
18 92 25 190 3 39 7 78 9 88 2 9 1 17 -2 17 -4 0 -8 26 -9 58 -3 81 -13 162
-22 181 -5 9 -11 33 -15 53 -4 21 -18 62 -31 93 -14 30 -25 58 -26 63 -4 18
-24 58 -37 75 -9 9 -12 17 -8 17 6 0 -70 117 -111 169 -21 26 -125 133 -169
172 -85 76 -244 164 -367 205 -45 15 -89 29 -97 32 -8 3 -23 6 -32 7 -10 2
-19 3 -20 5 -6 4 -55 10 -128 15 -41 3 -87 7 -102 9 -15 2 -28 3 -30 1z"/>
<path d="M1051 7319 c-35 -5 -89 -14 -120 -20 -31 -7 -59 -12 -63 -11 -5 1 -8
-3 -8 -9 0 -5 -5 -7 -10 -4 -6 4 -17 1 -25 -5 -8 -7 -15 -10 -15 -6 0 3 -25
-5 -55 -19 -30 -13 -55 -22 -55 -20 0 2 -27 -12 -61 -31 -33 -18 -63 -34 -65
-34 -3 0 -40 -25 -82 -56 -84 -62 -219 -194 -248 -243 -10 -17 -22 -31 -25
-31 -4 0 -14 -12 -22 -27 -8 -16 -32 -59 -53 -98 -50 -88 -80 -160 -96 -230
-7 -30 -16 -55 -21 -55 -4 0 -6 -3 -4 -7 3 -5 -1 -42 -8 -83 -12 -69 -13 -297
-2 -360 2 -14 8 -43 12 -65 18 -103 117 -347 151 -376 8 -6 14 -17 14 -24 0
-6 8 -21 18 -33 9 -11 26 -33 37 -48 24 -34 171 -181 209 -209 14 -11 32 -25
39 -30 20 -17 96 -65 102 -65 3 0 23 -11 45 -25 22 -14 40 -22 40 -19 0 4 6 1
14 -5 16 -13 179 -71 216 -76 14 -2 36 -7 50 -10 85 -21 430 -24 430 -5 0 3 8
6 18 7 33 3 140 33 187 53 25 11 48 19 50 19 8 0 119 55 125 62 3 3 16 12 30
19 94 48 233 178 348 325 25 32 95 159 117 215 15 36 31 74 36 85 8 19 28 93
34 125 33 182 35 340 4 488 -6 31 -12 62 -14 67 -1 6 -3 15 -5 20 -5 21 -49
134 -75 191 -63 139 -213 323 -345 426 -61 47 -180 120 -180 111 0 -5 -4 -3
-8 3 -11 16 -177 79 -257 97 -130 30 -284 40 -404 26z"/>
<path d="M7728 7325 c-2 -1 -30 -5 -63 -8 -76 -8 -166 -25 -210 -41 -145 -53
-249 -101 -286 -132 -8 -8 -19 -14 -23 -14 -5 0 -21 -10 -36 -22 -15 -13 -42
-33 -59 -46 -74 -57 -193 -188 -241 -268 -13 -21 -27 -41 -30 -44 -10 -9 -86
-169 -95 -202 -2 -5 -3 -9 -5 -10 -1 -2 -3 -10 -5 -18 -2 -8 -11 -40 -19 -70
-31 -112 -40 -186 -39 -305 0 -98 8 -183 21 -230 4 -16 8 -37 7 -45 -1 -8 2
-20 6 -25 4 -6 10 -22 13 -37 2 -14 10 -37 17 -50 7 -12 12 -25 12 -28 -2 -17
47 -121 86 -185 13 -22 23 -42 22 -44 -2 -2 1 -7 6 -10 4 -3 21 -24 38 -46 62
-84 210 -235 230 -235 3 0 16 -9 28 -20 71 -67 283 -163 432 -197 173 -38 389
-36 550 7 22 6 47 12 56 14 61 15 240 97 267 123 7 7 17 13 22 13 15 0 151
111 207 167 59 60 132 153 153 193 7 14 16 27 20 30 23 16 123 263 135 334 3
14 8 38 11 54 23 113 23 373 -1 434 -4 9 -8 29 -9 45 -2 15 -6 35 -9 43 -3 8
-13 40 -23 70 -9 30 -28 78 -40 107 -13 29 -23 54 -21 56 1 1 -4 9 -11 17 -7
8 -34 49 -61 91 -55 87 -65 99 -141 178 -49 51 -102 95 -185 156 -64 47 -240
131 -294 141 -13 3 -31 9 -40 13 -15 8 -74 22 -111 27 -8 1 -35 5 -60 9 -45 7
-216 15 -222 10z"/>
<path d="M14337 7324 c-1 -1 -29 -4 -62 -7 -33 -3 -82 -11 -110 -17 -27 -7
-57 -13 -65 -15 -8 -2 -15 -4 -15 -5 0 -1 -8 -3 -18 -5 -10 -2 -26 -7 -35 -11
-9 -4 -24 -8 -32 -10 -43 -9 -243 -118 -278 -151 -7 -7 -18 -13 -23 -13 -15 0
-236 -226 -244 -249 -3 -11 -11 -21 -16 -21 -6 0 -7 -4 -4 -10 3 -5 1 -10 -4
-10 -6 0 -19 -15 -28 -34 -44 -83 -95 -190 -97 -200 -1 -6 -5 -16 -8 -22 -10
-15 -45 -151 -54 -204 -29 -190 -14 -387 43 -560 22 -67 99 -237 113 -250 3
-3 21 -29 39 -57 18 -29 37 -53 42 -53 5 0 9 -5 9 -12 0 -18 230 -238 230
-220 0 4 4 2 8 -3 13 -18 171 -112 202 -120 3 -1 19 -7 35 -14 86 -36 208 -68
295 -78 112 -12 285 -7 370 11 14 3 41 9 60 12 19 4 40 9 45 13 6 3 18 7 29 8
19 3 40 12 151 61 276 124 528 411 618 707 43 141 48 170 52 335 7 253 -53
463 -194 679 -61 93 -183 223 -279 295 -111 85 -314 178 -437 202 -22 4 -47 9
-55 10 -65 13 -274 26 -283 18z"/>
<path d="M17627 7324 c-1 -1 -24 -4 -52 -8 -67 -8 -154 -24 -166 -32 -5 -3
-22 -8 -37 -10 -64 -12 -286 -119 -304 -148 -4 -6 -8 -7 -8 -3 0 5 -13 -2 -29
-15 -16 -12 -40 -31 -53 -41 -74 -56 -268 -275 -268 -302 0 -4 -8 -19 -18 -33
-48 -70 -123 -279 -138 -382 -14 -97 -20 -163 -18 -215 1 -65 12 -179 19 -210
20 -88 26 -112 32 -125 3 -8 8 -23 9 -33 6 -26 75 -178 96 -209 10 -14 18 -30
18 -35 0 -6 9 -18 20 -28 11 -10 20 -24 20 -31 0 -7 3 -14 8 -16 4 -1 25 -25
46 -52 90 -112 233 -228 366 -298 88 -47 245 -101 325 -113 11 -2 40 -7 65
-11 25 -4 95 -7 155 -7 102 0 140 3 220 18 17 3 39 8 50 9 36 7 80 19 90 25 6
3 19 7 29 8 11 2 24 7 30 12 6 5 29 14 51 21 22 7 42 16 45 19 3 3 30 19 60
35 49 26 117 71 174 116 41 32 146 140 146 151 0 5 4 8 9 4 5 -3 12 4 16 15 3
11 10 20 13 20 4 0 16 16 26 35 11 19 23 35 28 35 4 0 8 4 8 9 0 4 17 36 38
71 20 35 37 66 38 69 0 3 5 17 11 31 41 96 62 163 78 246 2 11 4 19 5 19 5 0
13 124 13 205 1 119 -5 202 -16 216 -4 7 -7 16 -6 20 1 5 0 11 -1 14 -1 3 -3
14 -5 25 -5 26 -13 59 -15 63 -2 1 -3 5 -4 10 -29 130 -156 348 -275 469 -66
69 -163 153 -175 153 -4 0 -16 9 -27 19 -30 28 -229 125 -281 137 -5 1 -10 3
-13 4 -3 1 -8 3 -12 4 -5 2 -28 8 -53 15 -55 16 -77 20 -155 26 -33 2 -62 5
-65 6 -6 3 -161 5 -163 3z"/>
</g>
</svg>
